<svg width="100" height="100" viewBox="0 0 100 100" fill="none" xmlns="http://www.w3.org/2000/svg">
<path d="M50 75L12.5 56.25L50 37.5L87.5 56.25L50 75Z" fill="hsl(120, 41%, 45%)"/>
<path d="M50 75V87.5" stroke="hsl(120, 41%, 45%)" stroke-width="5" stroke-linecap="round" stroke-linejoin="round"/>
<path d="M87.5 56.25V68.75C87.5 70.0833 86.875 71.25 85.625 71.875L51.875 88.125C50.625 88.75 49.375 88.75 48.125 88.125L14.375 71.875C13.125 71.25 12.5 70.0833 12.5 68.75V56.25" stroke="hsl(120, 41%, 45%)" stroke-width="5" stroke-linecap="round" stroke-linejoin="round"/>
<path d="M93.75 43.75V50C93.75 51.5 91.25 52.5 87.5 52.5C83.75 52.5 81.25 51.5 81.25 50V43.75C81.25 42.25 83.75 41.25 87.5 41.25C91.25 41.25 93.75 42.25 93.75 43.75Z" stroke="hsl(182, 80%, 45%)" stroke-width="5" stroke-linecap="round" stroke-linejoin="round"/>
<path d="M12.5 56.25L50 75L87.5 56.25L50 37.5L12.5 56.25Z" stroke="hsl(120, 41%, 45%)" stroke-width="5" stroke-linecap="round" stroke-linejoin="round"/>
<path d="M25 31.25L50 12.5L75 31.25" stroke="hsl(120, 41%, 45%)" stroke-width="5" stroke-linecap="round" stroke-linejoin="round"/>
</svg>
